General
ID : 1 (0x1)
Complete name : Meek Mill ft Drake - Amen 720pHD {ECS}.m2ts
Format : BDAV
Format/Info : Blu-ray Video
File size : 49.0 MiB
Duration : 4mn 56s
Overall bit rate mode : Variable
Overall bit rate : 1 389 Kbps
Maximum Overall bit rate : 35.5 Mbps

Video
ID : 4113 (0x1011)
Menu ID : 1 (0x1)
Format : AVC
Format/Info : Advanced Video Codec
Format profile : High@L3.1
Format settings, CABAC : Yes
Format settings, ReFrames : 5 frames
Codec ID : 27
Duration : 4mn 56s
Bit rate mode : Variable
Bit rate : 1 165 Kbps
Nominal bit rate : 1 106 Kbps
Maximum bit rate : 40.0 Mbps
Width : 1 280 pixels
Height : 624 pixels
Display aspect ratio : 2.051
Frame rate : 23.976 fps
Color space : YUV
Chroma subsampling : 4:2:0
Bit depth : 8 bits
Scan type : Progressive
Bits/(Pixel*Frame) : 0.061
Stream size : 41.1 MiB (84%)
Writing library : x264 core 125 r2200 999b753


Audio
ID : 4352 (0x1100)
Menu ID : 1 (0x1)
Format : AC-3
Format/Info : Audio Coding 3
Mode extension : CM (complete main)
Format settings, Endianness : Big
Codec ID : 129
Duration : 4mn 56s
Bit rate mode : Constant
Bit rate : 160 Kbps
Channel(s) : 2 channels
Channel positions : Front: L R
Sampling rate : 44.1 KHz
Bit depth : 16 bits
Compression mode : Lossy
Stream size : 5.65 MiB (12%)

Screenshots 
http://i1271.photobucket.com/albums/jj629/sameer_ecs/MeekMillftDrake-Amen720pHDECSm2ts_thumbs_20120717_225721.jpg